# xmcd
#
# Track frame offsets:
#	150
#	12313
#	23369
#	31539
#	41539
#	52627
#	62772
#	71247
#	81378
#	90556
#	99267
#	107796
#	119298
#	130764
#	139613
#	148971
#	159350
#	170898
#	179782
#	189987
#	197866
#	207606
#	217656
#
# Disc length: 3024 seconds
#
# Revision: 3
# Processed by: cddbd v1.5.2PL0 Copyright (c) Steve Scherf et al.
# Submitted via: EasyCDDAExtractor 11.1.0.1
#
DISCID=400bce17
DTITLE=Various Artist - The Singles Collection: Regal Zonophone And Beyond - 
DTITLE=Disc 3
DYEAR=2002
DGENRE=Country
TTITLE0=Chad Morgan - The Tatterville Women's Auxillary Sewing Circle
TTITLE1=Chad Morgan - The Moon Is High And So Am I
TTITLE2=Chad Morgan - In A Cemetery
TTITLE3=Chad Morgan - The Crow Flying Backwards
TTITLE4=Chad Morgan - I'm My Own Grandpa
TTITLE5=Chad Morgan - If I Could Just Go Back (And Know What I Know Now)
TTITLE6=Chad Morgan - If You Can't Bite Don't Growl
TTITLE7=Chad Morgan - On The Social Service
TTITLE8=Chad Morgan - Etiquette Blues (Thank You For Your Very Kind Attention)
TTITLE9=Chad Morgan - Better Times A Comin'
TTITLE10=Chad Morgan - The Three Ply Coffin
TTITLE11=Chad Morgan - Women Do Funny Things
TTITLE12=Chad Morgan - Getting Younger
TTITLE13=Chad Morgan with Eddie Tapp - Sally Let Your Bangs Hang Down
TTITLE14=Chad Morgan - I'll Just Get Stoned This Afternoon
TTITLE15=Chad Morgan - A Lover's Plea
TTITLE16=Chad Morgan - Cobb And Co
TTITLE17=Chad Morgan - Drinking Man
TTITLE18=Chad Morgan - Here's To The Ladies
TTITLE19=Chad Morgan - Just The Same
TTITLE20=Chad Morgan - Problem Child
TTITLE21=Chad Morgan - The Thrashing Machine
TTITLE22=Chad Morgan - The Legend
EXTD=
EXTT0=
EXTT1=
EXTT2=
EXTT3=
EXTT4=
EXTT5=
EXTT6=
EXTT7=
EXTT8=
EXTT9=
EXTT10=
EXTT11=
EXTT12=
EXTT13=
EXTT14=
EXTT15=
EXTT16=
EXTT17=
EXTT18=
EXTT19=
EXTT20=
EXTT21=
EXTT22=
PLAYORDER=
